{
	"asset":{
		"generator":"Khronos glTF Blender I/O v4.4.56",
		"version":"2.0"
	},
	"extensionsUsed":[
		"KHR_materials_specular",
		"KHR_materials_ior"
	],
	"scene":0,
	"scenes":[
		{
			"name":"Scene",
			"nodes":[
				0,
				1,
				2,
				3,
				4,
				5,
				6
			]
		}
	],
	"nodes":[
		{
			"mesh":0,
			"name":"boton.001",
			"rotation":[
				0.7071068286895752,
				0,
				-0.7071068286895752,
				5.338508302088485e-08
			],
			"translation":[
				3.624337673187256,
				49.12078094482422,
				29.01864242553711
			]
		},
		{
			"mesh":1,
			"name":"ledAzul.001",
			"rotation":[
				0.7071068286895752,
				0,
				-0.7071068286895752,
				5.338508302088485e-08
			],
			"translation":[
				22.70640754699707,
				46.48949432373047,
				16.29166030883789
			]
		},
		{
			"mesh":2,
			"name":"ledVerde.001",
			"rotation":[
				0.7071068286895752,
				0,
				-0.7071068286895752,
				5.338508302088485e-08
			],
			"translation":[
				22.22819709777832,
				46.68091583251953,
				42.6829948425293
			]
		},
		{
			"mesh":3,
			"name":"obj14.002",
			"translation":[
				-34.89561462402344,
				20.350122451782227,
				57.26618576049805
			]
		},
		{
			"mesh":4,
			"name":"obj23.001",
			"translation":[
				-34.89561462402344,
				20.350122451782227,
				57.26618576049805
			]
		},
		{
			"mesh":5,
			"name":"caja.001",
			"scale":[
				38.12342071533203,
				70.63227844238281,
				27.048093795776367
			],
			"translation":[
				2.9564085006713867,
				9.465387344360352,
				30.531612396240234
			]
		},
		{
			"mesh":6,
			"name":"tapa.001",
			"scale":[
				38.12342071533203,
				46.8004150390625,
				27.048093795776367
			],
			"translation":[
				2.9321746826171875,
				47.42427062988281,
				30.531612396240234
			]
		}
	],
	"animations":[
		{
			"channels":[
				{
					"sampler":0,
					"target":{
						"node":0,
						"path":"translation"
					}
				}
			],
			"name":"boton_acci\u00f3n.001",
			"samplers":[
				{
					"input":23,
					"interpolation":"LINEAR",
					"output":24
				}
			]
		},
		{
			"channels":[
				{
					"sampler":0,
					"target":{
						"node":1,
						"path":"translation"
					}
				}
			],
			"name":"ledAzul_acci\u00f3n.001",
			"samplers":[
				{
					"input":23,
					"interpolation":"LINEAR",
					"output":25
				}
			]
		},
		{
			"channels":[
				{
					"sampler":0,
					"target":{
						"node":2,
						"path":"translation"
					}
				}
			],
			"name":"ledVerde_acci\u00f3n.001",
			"samplers":[
				{
					"input":23,
					"interpolation":"LINEAR",
					"output":26
				}
			]
		},
		{
			"channels":[
				{
					"sampler":0,
					"target":{
						"node":3,
						"path":"translation"
					}
				}
			],
			"name":"obj14.001_acci\u00f3n.001",
			"samplers":[
				{
					"input":23,
					"interpolation":"LINEAR",
					"output":27
				}
			]
		},
		{
			"channels":[
				{
					"sampler":0,
					"target":{
						"node":4,
						"path":"translation"
					}
				}
			],
			"name":"obj23_acci\u00f3n.002",
			"samplers":[
				{
					"input":23,
					"interpolation":"LINEAR",
					"output":28
				}
			]
		},
		{
			"channels":[
				{
					"sampler":0,
					"target":{
						"node":5,
						"path":"translation"
					}
				}
			],
			"name":"caja.001_acci\u00f3n",
			"samplers":[
				{
					"input":23,
					"interpolation":"LINEAR",
					"output":29
				}
			]
		},
		{
			"channels":[
				{
					"sampler":0,
					"target":{
						"node":6,
						"path":"translation"
					}
				}
			],
			"name":"tapa_acci\u00f3n.001",
			"samplers":[
				{
					"input":23,
					"interpolation":"LINEAR",
					"output":30
				}
			]
		}
	],
	"materials":[
		{
			"doubleSided":true,
			"name":"Material.015",
			"pbrMetallicRoughness":{
				"baseColorTexture":{
					"index":0
				},
				"metallicFactor":0,
				"roughnessFactor":0.5
			}
		},
		{
			"doubleSided":true,
			"extensions":{
				"KHR_materials_specular":{
					"specularFactor":0.10000000149011612
				},
				"KHR_materials_ior":{
					"ior":1
				}
			},
			"name":"mat1.016",
			"pbrMetallicRoughness":{
				"baseColorFactor":[
					0.010464854538440704,
					0.014178858138620853,
					0.8588237166404724,
					1
				],
				"metallicFactor":0,
				"roughnessFactor":0.2928932309150696
			}
		},
		{
			"doubleSided":true,
			"extensions":{
				"KHR_materials_specular":{
					"specularFactor":0.10000000149011612
				},
				"KHR_materials_ior":{
					"ior":1
				}
			},
			"name":"mat1.015",
			"pbrMetallicRoughness":{
				"baseColorFactor":[
					0.3882400095462799,
					0.8588200211524963,
					0.3882400095462799,
					1
				],
				"metallicFactor":0,
				"roughnessFactor":0.2928932309150696
			}
		},
		{
			"doubleSided":true,
			"extensions":{
				"KHR_materials_specular":{
					"specularFactor":0.10000000149011612
				},
				"KHR_materials_ior":{
					"ior":1
				}
			},
			"name":"mat9.002",
			"pbrMetallicRoughness":{
				"baseColorFactor":[
					0.09803999960422516,
					0.09803999960422516,
					0.09803999960422516,
					1
				],
				"metallicFactor":0,
				"roughnessFactor":0.2928932309150696
			}
		},
		{
			"doubleSided":true,
			"extensions":{
				"KHR_materials_specular":{
					"specularFactor":0.10000000149011612
				},
				"KHR_materials_ior":{
					"ior":1
				}
			},
			"name":"mat12.002",
			"pbrMetallicRoughness":{
				"baseColorFactor":[
					0.666670024394989,
					0.6980400085449219,
					0.7686300277709961,
					1
				],
				"metallicFactor":0,
				"roughnessFactor":0.2928932309150696
			}
		},
		{
			"doubleSided":true,
			"name":"Material.017",
			"pbrMetallicRoughness":{
				"baseColorFactor":[
					0.2622489333152771,
					0.2622509002685547,
					0.26225078105926514,
					1
				],
				"metallicFactor":0,
				"roughnessFactor":0.5
			}
		},
		{
			"doubleSided":true,
			"name":"Material.014",
			"pbrMetallicRoughness":{
				"baseColorFactor":[
					0.2622489333152771,
					0.2622509002685547,
					0.26225078105926514,
					1
				],
				"metallicFactor":0,
				"roughnessFactor":0.5
			}
		}
	],
	"meshes":[
		{
			"name":"obj1.015",
			"primitives":[
				{
					"attributes":{
						"POSITION":0,
						"NORMAL":1,
						"TEXCOORD_0":2
					},
					"indices":3,
					"material":0
				}
			]
		},
		{
			"name":"obj2.016",
			"primitives":[
				{
					"attributes":{
						"POSITION":4,
						"NORMAL":5
					},
					"indices":6,
					"material":1
				}
			]
		},
		{
			"name":"obj2.015",
			"primitives":[
				{
					"attributes":{
						"POSITION":7,
						"NORMAL":8
					},
					"indices":6,
					"material":2
				}
			]
		},
		{
			"name":"obj14.002",
			"primitives":[
				{
					"attributes":{
						"POSITION":9,
						"NORMAL":10
					},
					"indices":11,
					"material":3
				}
			]
		},
		{
			"name":"obj23.002",
			"primitives":[
				{
					"attributes":{
						"POSITION":12,
						"NORMAL":13
					},
					"indices":14,
					"material":4
				}
			]
		},
		{
			"name":"Plano.004",
			"primitives":[
				{
					"attributes":{
						"POSITION":15,
						"NORMAL":16,
						"TEXCOORD_0":17
					},
					"indices":18,
					"material":5
				}
			]
		},
		{
			"name":"Plano.003",
			"primitives":[
				{
					"attributes":{
						"POSITION":19,
						"NORMAL":20,
						"TEXCOORD_0":21
					},
					"indices":22,
					"material":6
				}
			]
		}
	],
	"textures":[
		{
			"sampler":0,
			"source":0
		}
	],
	"images":[
		{
			"mimeType":"image/png",
			"name":"boton2",
			"uri":"boton2.png"
		}
	],
	"accessors":[
		{
			"bufferView":0,
			"componentType":5126,
			"count":26254,
			"max":[
				8.899999618530273,
				29.5,
				8.897233963012695
			],
			"min":[
				-8.899999618530273,
				-9,
				-8.897233963012695
			],
			"type":"VEC3"
		},
		{
			"bufferView":1,
			"componentType":5126,
			"count":26254,
			"type":"VEC3"
		},
		{
			"bufferView":2,
			"componentType":5126,
			"count":26254,
			"type":"VEC2"
		},
		{
			"bufferView":3,
			"componentType":5123,
			"count":34878,
			"type":"SCALAR"
		},
		{
			"bufferView":4,
			"componentType":5126,
			"count":14034,
			"max":[
				2.5799999237060547,
				1,
				2.9999892711639404
			],
			"min":[
				-3,
				-7.5,
				-2.9999892711639404
			],
			"type":"VEC3"
		},
		{
			"bufferView":5,
			"componentType":5126,
			"count":14034,
			"type":"VEC3"
		},
		{
			"bufferView":6,
			"componentType":5123,
			"count":14922,
			"type":"SCALAR"
		},
		{
			"bufferView":7,
			"componentType":5126,
			"count":14034,
			"max":[
				2.5799999237060547,
				1,
				2.9999892711639404
			],
			"min":[
				-3,
				-7.5,
				-2.9999892711639404
			],
			"type":"VEC3"
		},
		{
			"bufferView":8,
			"componentType":5126,
			"count":14034,
			"type":"VEC3"
		},
		{
			"bufferView":9,
			"componentType":5126,
			"count":1387,
			"max":[
				12.600000381469727,
				11,
				-3.299999952316284
			],
			"min":[
				-1.7999999523162842,
				0,
				-12.300000190734863
			],
			"type":"VEC3"
		},
		{
			"bufferView":10,
			"componentType":5126,
			"count":1387,
			"type":"VEC3"
		},
		{
			"bufferView":11,
			"componentType":5123,
			"count":2766,
			"type":"SCALAR"
		},
		{
			"bufferView":12,
			"componentType":5126,
			"count":2374,
			"max":[
				12.079999923706055,
				8.600000381469727,
				-2.9000000953674316
			],
			"min":[
				-0.800000011920929,
				-3.5,
				-9.300000190734863
			],
			"type":"VEC3"
		},
		{
			"bufferView":13,
			"componentType":5126,
			"count":2374,
			"type":"VEC3"
		},
		{
			"bufferView":14,
			"componentType":5123,
			"count":4242,
			"type":"SCALAR"
		},
		{
			"bufferView":15,
			"componentType":5126,
			"count":1689,
			"max":[
				1.0262305736541748,
				0.5383265614509583,
				1.0369712114334106
			],
			"min":[
				-1.0262305736541748,
				0,
				-1.0369712114334106
			],
			"type":"VEC3"
		},
		{
			"bufferView":16,
			"componentType":5126,
			"count":1689,
			"type":"VEC3"
		},
		{
			"bufferView":17,
			"componentType":5126,
			"count":1689,
			"type":"VEC2"
		},
		{
			"bufferView":18,
			"componentType":5123,
			"count":3792,
			"type":"SCALAR"
		},
		{
			"bufferView":19,
			"componentType":5126,
			"count":3502,
			"max":[
				1.0262305736541748,
				0.03006862848997116,
				1.0369712114334106
			],
			"min":[
				-1.0262305736541748,
				-0.02136734127998352,
				-1.0369712114334106
			],
			"type":"VEC3"
		},
		{
			"bufferView":20,
			"componentType":5126,
			"count":3502,
			"type":"VEC3"
		},
		{
			"bufferView":21,
			"componentType":5126,
			"count":3502,
			"type":"VEC2"
		},
		{
			"bufferView":22,
			"componentType":5123,
			"count":7092,
			"type":"SCALAR"
		},
		{
			"bufferView":23,
			"componentType":5126,
			"count":1,
			"max":[
				0.041666666666666664
			],
			"min":[
				0.041666666666666664
			],
			"type":"SCALAR"
		},
		{
			"bufferView":24,
			"componentType":5126,
			"count":1,
			"type":"VEC3"
		},
		{
			"bufferView":25,
			"componentType":5126,
			"count":1,
			"type":"VEC3"
		},
		{
			"bufferView":26,
			"componentType":5126,
			"count":1,
			"type":"VEC3"
		},
		{
			"bufferView":27,
			"componentType":5126,
			"count":1,
			"type":"VEC3"
		},
		{
			"bufferView":28,
			"componentType":5126,
			"count":1,
			"type":"VEC3"
		},
		{
			"bufferView":29,
			"componentType":5126,
			"count":1,
			"type":"VEC3"
		},
		{
			"bufferView":30,
			"componentType":5126,
			"count":1,
			"type":"VEC3"
		}
	],
	"bufferViews":[
		{
			"buffer":0,
			"byteLength":315048,
			"byteOffset":0,
			"target":34962
		},
		{
			"buffer":0,
			"byteLength":315048,
			"byteOffset":315048,
			"target":34962
		},
		{
			"buffer":0,
			"byteLength":210032,
			"byteOffset":630096,
			"target":34962
		},
		{
			"buffer":0,
			"byteLength":69756,
			"byteOffset":840128,
			"target":34963
		},
		{
			"buffer":0,
			"byteLength":168408,
			"byteOffset":909884,
			"target":34962
		},
		{
			"buffer":0,
			"byteLength":168408,
			"byteOffset":1078292,
			"target":34962
		},
		{
			"buffer":0,
			"byteLength":29844,
			"byteOffset":1246700,
			"target":34963
		},
		{
			"buffer":0,
			"byteLength":168408,
			"byteOffset":1276544,
			"target":34962
		},
		{
			"buffer":0,
			"byteLength":168408,
			"byteOffset":1444952,
			"target":34962
		},
		{
			"buffer":0,
			"byteLength":16644,
			"byteOffset":1613360,
			"target":34962
		},
		{
			"buffer":0,
			"byteLength":16644,
			"byteOffset":1630004,
			"target":34962
		},
		{
			"buffer":0,
			"byteLength":5532,
			"byteOffset":1646648,
			"target":34963
		},
		{
			"buffer":0,
			"byteLength":28488,
			"byteOffset":1652180,
			"target":34962
		},
		{
			"buffer":0,
			"byteLength":28488,
			"byteOffset":1680668,
			"target":34962
		},
		{
			"buffer":0,
			"byteLength":8484,
			"byteOffset":1709156,
			"target":34963
		},
		{
			"buffer":0,
			"byteLength":20268,
			"byteOffset":1717640,
			"target":34962
		},
		{
			"buffer":0,
			"byteLength":20268,
			"byteOffset":1737908,
			"target":34962
		},
		{
			"buffer":0,
			"byteLength":13512,
			"byteOffset":1758176,
			"target":34962
		},
		{
			"buffer":0,
			"byteLength":7584,
			"byteOffset":1771688,
			"target":34963
		},
		{
			"buffer":0,
			"byteLength":42024,
			"byteOffset":1779272,
			"target":34962
		},
		{
			"buffer":0,
			"byteLength":42024,
			"byteOffset":1821296,
			"target":34962
		},
		{
			"buffer":0,
			"byteLength":28016,
			"byteOffset":1863320,
			"target":34962
		},
		{
			"buffer":0,
			"byteLength":14184,
			"byteOffset":1891336,
			"target":34963
		},
		{
			"buffer":0,
			"byteLength":4,
			"byteOffset":1905520
		},
		{
			"buffer":0,
			"byteLength":12,
			"byteOffset":1905524
		},
		{
			"buffer":0,
			"byteLength":12,
			"byteOffset":1905536
		},
		{
			"buffer":0,
			"byteLength":12,
			"byteOffset":1905548
		},
		{
			"buffer":0,
			"byteLength":12,
			"byteOffset":1905560
		},
		{
			"buffer":0,
			"byteLength":12,
			"byteOffset":1905572
		},
		{
			"buffer":0,
			"byteLength":12,
			"byteOffset":1905584
		},
		{
			"buffer":0,
			"byteLength":12,
			"byteOffset":1905596
		}
	],
	"samplers":[
		{
			"magFilter":9729,
			"minFilter":9987
		}
	],
	"buffers":[
		{
			"byteLength":1905608,
			"uri":"cajaMPNcerrada.bin"
		}
	]
}
